<svg id="Layer_1" data-name="Layer 1" xmlns="http://www.w3.org/2000/svg" xmlns:xlink="http://www.w3.org/1999/xlink" viewBox="0 0 719.07 188.09"><defs><style>.cls-1{fill:#fff;}.cls-2{fill:url(#linear-gradient);}.cls-3{fill:url(#linear-gradient-2);}.cls-4{fill:url(#linear-gradient-3);}.cls-5{fill:url(#linear-gradient-4);}.cls-6{fill:#00b6ff;}</style><linearGradient id="linear-gradient" x1="-62.26" y1="123.48" x2="115.06" y2="-55.25" gradientUnits="userSpaceOnUse"><stop offset="0.01" stop-color="#00b6ff"/><stop offset="1" stop-color="#00dbe3"/></linearGradient><linearGradient id="linear-gradient-2" x1="2.39" y1="187.62" x2="179.71" y2="8.89" xlink:href="#linear-gradient"/><linearGradient id="linear-gradient-3" x1="66.67" y1="251.39" x2="243.99" y2="72.66" xlink:href="#linear-gradient"/><linearGradient id="linear-gradient-4" x1="2.02" y1="187.25" x2="179.34" y2="8.52" xlink:href="#linear-gradient"/></defs><title>enot-design</title><path class="cls-1" d="M80.2,71.49V85.25H39.25V27.8H79.47V41.55H55v8.1H75.91V62.43H55v9.06Z"/><path class="cls-1" d="M123,57V85.25H107.26V27.8h12.3L142.62,57V27.8H158.4V85.25H145.86Z"/><path class="cls-1" d="M59.6,161a27.64,27.64,0,0,1-11.89-2.51,29.53,29.53,0,0,1-9.15-6.59,30,30,0,0,1-5.9-9.35,28.81,28.81,0,0,1-2.11-10.84,28.18,28.18,0,0,1,2.19-10.93,28.88,28.88,0,0,1,6.11-9.26,29.94,29.94,0,0,1,9.3-6.4,28.77,28.77,0,0,1,11.78-2.38,27.5,27.5,0,0,1,11.89,2.51A29.16,29.16,0,0,1,81,111.87a29.71,29.71,0,0,1,5.86,9.39A29.11,29.11,0,0,1,88.9,132a27.83,27.83,0,0,1-2.19,10.88,29.37,29.37,0,0,1-6.07,9.23,30,30,0,0,1-9.26,6.43A28.32,28.32,0,0,1,59.6,161Zm-13-29.13a19.48,19.48,0,0,0,.8,5.62,14.79,14.79,0,0,0,2.43,4.82,12.36,12.36,0,0,0,4.09,3.4A12.5,12.5,0,0,0,59.77,147a12.38,12.38,0,0,0,5.9-1.33,12,12,0,0,0,4.09-3.48,15.24,15.24,0,0,0,2.35-4.9,20.7,20.7,0,0,0,.77-5.58,19.91,19.91,0,0,0-.81-5.63,14,14,0,0,0-2.47-4.77A13.34,13.34,0,0,0,53.82,118a12,12,0,0,0-4.09,3.44,14.71,14.71,0,0,0-2.39,4.86A20.24,20.24,0,0,0,46.58,131.86Z"/><path class="cls-1" d="M157.27,116.81H140.76V160.5H125V116.81H108.39V103.05h48.88Z"/><polygon class="cls-2" points="88.9 6.13 19.53 6.13 6.94 6.13 6.94 18.72 6.94 88.09 19.53 88.09 19.53 18.72 88.9 18.72 88.9 6.13"/><polygon class="cls-3" points="170.18 6.13 100.81 6.13 100.81 18.72 170.18 18.72 170.18 88.09 182.77 88.09 182.77 18.72 182.77 6.13 170.18 6.13"/><polygon class="cls-4" points="170.18 100.01 170.18 169.37 100.81 169.37 100.81 181.97 170.18 181.97 182.77 181.97 182.77 169.37 182.77 100.01 170.18 100.01"/><polygon class="cls-5" points="88.9 169.37 19.53 169.37 19.53 100.01 6.94 100.01 6.94 169.37 6.94 181.97 19.53 181.97 88.9 181.97 88.9 169.37"/><circle class="cls-6" cx="157.27" cy="155.44" r="6.33"/><path class="cls-1" d="M270.54,120.84V117q-4.87,4.88-14.19,4.88a20.26,20.26,0,0,1-16.05-7.09q-6.17-7.09-6.16-18.92a30.37,30.37,0,0,1,7.09-20.27q7.1-8.4,16.9-8.4,8.17,0,12.41,3.84V46.51h9.36v74.33Zm0-40.49a11.09,11.09,0,0,0-9.7-5.32,15.07,15.07,0,0,0-12.19,5.62Q244,86.26,244,94.93,244,114,261.33,114a13.31,13.31,0,0,0,5.32-1.41c2.07-.93,3.37-1.93,3.89-3Z"/><path class="cls-1" d="M378.08,95.43h-38q0,9.25,5.08,14.23A15.88,15.88,0,0,0,356.65,114a19.65,19.65,0,0,0,13.4-4.68l3.94,6.75a17.63,17.63,0,0,1-6.65,3.74,35.92,35.92,0,0,1-12.51,2.07,23.33,23.33,0,0,1-16.89-6.75q-7.74-7.44-7.74-20,0-13,7.93-20.93a23,23,0,0,1,16.8-7q11.28,0,17.68,6.36,6.21,6.1,6.21,16.2A21.06,21.06,0,0,1,378.08,95.43ZM355.37,75a14.79,14.79,0,0,0-15.07,13.6h29.21A13.29,13.29,0,0,0,366,79.17Q362.08,75,355.37,75Z"/><path class="cls-1" d="M425.57,117.74l3.3-8.87q7.85,5.13,12.61,5.13,8.67,0,8.67-7.29,0-5.22-8.37-9a68.34,68.34,0,0,1-8.69-4.48,19.51,19.51,0,0,1-3.9-3.47,13.83,13.83,0,0,1-2.46-4.14,13.47,13.47,0,0,1-.81-4.71,12.09,12.09,0,0,1,4.73-10.14q4.73-3.64,12.36-3.65,5.76,0,14.53,3.65l-2.66,8.67Q449.32,75,443.7,75a9.73,9.73,0,0,0-5.64,1.58,4.69,4.69,0,0,0-2.29,4q0,5.07,5.76,7.68l6.7,3.06q6.16,2.8,9,6.4a14.22,14.22,0,0,1,2.81,9c0,4.72-1.66,8.43-5,11.1s-7.91,4-13.79,4A31.42,31.42,0,0,1,425.57,117.74Z"/><path class="cls-1" d="M514.74,120.89V76H507.5V68.14h16.6v52.75Zm5.12-72.7a5.6,5.6,0,0,1,4.12,1.7,5.54,5.54,0,0,1,1.7,4.06,5.8,5.8,0,0,1-5.82,5.81,5.52,5.52,0,0,1-4.06-1.7,5.76,5.76,0,0,1,4.06-9.87Z"/><path class="cls-1" d="M577.41,135.33l5.07-7.49q8.17,5.46,15.07,5.47,6.36,0,10-2.2c2.44-1.46,3.67-3.27,3.67-5.44q0-6.4-9.26-6.4a36.09,36.09,0,0,0-5.72.79,37.3,37.3,0,0,1-6.45.78q-11.24,0-11.23-8.47a6.06,6.06,0,0,1,2.63-4.73,16.4,16.4,0,0,1,6.53-3q-11.13-5.22-11.13-18.13a18.3,18.3,0,0,1,5.76-13.79,19.79,19.79,0,0,1,14.24-5.52q7.78,0,12.16,3.2l4.68-5.61,6.11,5.76L614,74.74q3.59,4.68,3.59,12.21a19.1,19.1,0,0,1-5,13.4,19.62,19.62,0,0,1-13.06,6.21l-7.73.79a15.15,15.15,0,0,0-3.69,1.06c-1.55.6-2.32,1.4-2.32,2.38q0,2,4.83,2a43.68,43.68,0,0,0,6.6-.76,43.64,43.64,0,0,1,6.65-.76q7.78,0,12.14,3.72c2.91,2.48,4.36,5.91,4.36,10.32q0,7.29-6.53,11.77t-16.52,4.48a35.33,35.33,0,0,1-10.79-1.82A30.57,30.57,0,0,1,577.41,135.33Zm19.85-60.64a10.18,10.18,0,0,0-8,3.45,12.14,12.14,0,0,0-3.08,8.37,14,14,0,0,0,3,9.14,9.9,9.9,0,0,0,8.06,3.62A9.42,9.42,0,0,0,605,95.75a14.4,14.4,0,0,0,2.81-9.24,12.24,12.24,0,0,0-3-8.37A9.65,9.65,0,0,0,597.26,74.69Z"/><path class="cls-1" d="M702.78,120.89V90.21q0-8.43-2.54-11.8T691.74,75A14,14,0,0,0,685,77a14.92,14.92,0,0,0-5.36,4.73v39.21h-9.36V68.14h6.4l3,6.8q4.62-7.78,15.12-7.79,17.34,0,17.34,21.08v32.66Z"/></svg>